<?xml version="1.0" encoding="utf-8"?>
<!-- Generator: Adobe Illustrator 24.1.0, SVG Export Plug-In . SVG Version: 6.00 Build 0)  -->
<svg version="1.1" id="LOGO" xmlns="http://www.w3.org/2000/svg" xmlns:xlink="http://www.w3.org/1999/xlink" x="0px" y="0px"
	 viewBox="0 0 277 279.4" style="enable-background:new 0 0 277 279.4;" xml:space="preserve">
<style type="text/css">
	.st0{fill:#01FFFF;}
</style>
<circle class="st0" cx="140" cy="139.7" r="130.5"/>
<g>
	<polygon points="193,144.4 176.6,144.4 176.6,117.8 151.4,117.8 151.4,161.6 193,161.6 	"/>
	<polygon points="240,117.8 191.3,117.8 191.3,134.9 202.5,134.9 202.5,161.6 228.9,161.6 228.9,134.9 240,134.9 	"/>
	<path d="M121.2,117c-12.5,0-22.7,10.2-22.7,22.7c0,12.5,10.2,22.7,22.7,22.7s22.7-10.2,22.7-22.7l0,0
		C143.8,127.2,133.7,117,121.2,117"/>
	<polygon points="40,117.8 69.8,162.3 99.7,117.8 	"/>
</g>
</svg>
